<?xml version="1.0" encoding="UTF-8"?>
<svg width="74px" height="18px" viewBox="0 0 74 18" version="1.1" xmlns="http://www.w3.org/2000/svg" xmlns:xlink="http://www.w3.org/1999/xlink">
    <!-- Generator: Sketch 50 (54983) - http://www.bohemiancoding.com/sketch -->
    <title>cdek_color</title>
    <desc>Created with Sketch.</desc>
    <defs></defs>
    <g id="Page-1" stroke="none" stroke-width="1" fill="none" fill-rule="evenodd">
        <g id="cdek_color" fill-rule="nonzero">
            <path d="M8.209,0.826 C3.675,0.826 0,4.486 0,9 C0,13.514 3.675,17.174 8.209,17.174 C12.743,17.174 16.418,13.514 16.418,9 C16.418,4.486 12.743,0.826 8.209,0.826 Z M15.486,6.924 L14.682,7.152 C9.786,8.622 6.057,10.434 3.355,14.85 C3.247,15.025 3.069,14.931 3.099,14.721 C3.139,14.44 3.178,14.166 3.22,13.898 C5.712,10.212 9.442,8.009 13.637,6.619 C13.931,6.617 14.229,6.616 14.533,6.615 L15.447,6.612 C15.664,6.611 15.725,6.856 15.486,6.924 Z M14.692,5.487 L13.887,5.715 C8.992,7.186 5.116,9.289 2.414,13.705 C2.306,13.881 2.122,13.847 2.158,13.638 C2.509,11.617 2.889,9.55 3.825,7.7 C3.282,6.943 2.636,6.065 2.082,4.832 C2.02,4.692 1.971,4.594 1.939,4.507 C1.86,4.291 2.011,4.187 2.195,4.284 C2.379,4.38 3.056,4.633 3.564,4.747 C4.651,4.99 5.756,5.14 6.954,5.178 C8.95,5.243 11.13,5.187 13.739,5.178 L14.652,5.175 C14.869,5.174 14.931,5.42 14.692,5.487 Z" id="Fill-73" fill="#039752"></path>
            <path d="M28.357,12.877 L26.008,12.877 C22.352,12.879 25.001,5.135 28.094,5.134 L29.637,5.134 L31.79,5.135 C32.389,5.135 33.438,5.245 33.952,3.779 L34.747,1.51 L29.662,1.51 C26.909,1.511 24.762,2.483 23.212,4.092 C20.541,6.867 19.621,11.198 20.272,13.274 C20.875,15.193 22.548,16.457 25.141,16.482 L27.167,16.502 L29.659,16.502 L30.272,14.685 C30.718,13.366 29.712,12.877 28.357,12.877" id="Fill-74" fill="#000000"></path>
            <path d="M56.947,9.67 L57.718,7.195 C55.365,7.194 51.885,7.194 49.532,7.194 C48.178,7.194 47.563,7.566 47.321,8.344 L46.551,10.819 C48.903,10.819 52.384,10.82 54.736,10.82 C56.091,10.82 56.705,10.448 56.947,9.67" id="Fill-75" fill="#000000"></path>
            <path d="M45.328,14.026 L44.558,16.502 C46.91,16.502 50.391,16.503 52.743,16.503 C54.097,16.503 54.712,16.131 54.954,15.353 L55.725,12.878 C53.372,12.877 49.892,12.877 47.54,12.877 C46.185,12.877 45.57,13.249 45.328,14.026" id="Fill-76" fill="#000000"></path>
            <path d="M58.847,3.987 L59.618,1.512 C57.265,1.512 53.785,1.511 51.432,1.511 C50.078,1.511 49.463,1.883 49.221,2.661 L48.45,5.136 C50.803,5.137 54.283,5.137 56.635,5.137 C57.99,5.137 58.605,4.765 58.847,3.987" id="Fill-77" fill="#000000"></path>
            <path d="M46.49,4.49 C46.148,2.189 44.906,1.511 41.899,1.51 L36.419,1.51 L33.229,10.808 L35.256,10.811 C36.462,10.812 37.068,10.827 37.71,9.108 L39.037,5.121 L41.074,5.122 C42.811,5.122 42.415,7.281 41.536,9.386 C40.761,11.241 39.389,12.877 37.752,12.877 L34.355,12.877 C33,12.877 32.375,13.249 32.112,14.026 L31.273,16.502 L33.764,16.502 L36.199,16.482 C38.359,16.464 40.126,16.309 42.194,14.459 C44.379,12.504 46.926,7.427 46.49,4.49" id="Fill-78" fill="#000000"></path>
            <path d="M74,1.497 L69.26,1.497 L64.805,6.217 C64.286,6.767 63.761,7.308 63.235,7.954 L63.19,7.954 L65.414,1.497 L61.551,1.497 L56.348,16.503 L60.211,16.503 L61.871,11.783 L63.597,10.336 L64.957,14.605 C65.377,15.924 65.81,16.503 66.754,16.503 L69.712,16.503 L66.661,8.127 L74,1.497" id="Fill-79" fill="#000000"></path>
        </g>
    </g>
</svg>