<?xml version="1.0" encoding="UTF-8" standalone="no"?>
<svg width="60px" height="32px" viewBox="0 0 60 32" version="1.1" xmlns="http://www.w3.org/2000/svg" xmlns:xlink="http://www.w3.org/1999/xlink" xmlns:sketch="http://www.bohemiancoding.com/sketch/ns">
    <!-- Generator: Sketch 3.3.2 (12043) - http://www.bohemiancoding.com/sketch -->
    <title>Slice 1</title>
    <desc>Created with Sketch.</desc>
    <defs></defs>
    <g id="Page-1" stroke="none" stroke-width="1" fill="none" fill-rule="evenodd" sketch:type="MSPage">
        <g id="dpd-copy" sketch:type="MSLayerGroup">
            <path d="M56.811,17.07 L59.947,15.242 L59.947,5.501 L51.581,0.633 L48.446,2.46 L56.811,7.328 L56.811,17.07" id="Fill-25" fill="#FF122B" sketch:type="MSShapeGroup"></path>
            <path d="M33.816,17.067 L30.68,15.24 L30.68,5.498 L39.044,0.63 L42.18,2.459 L33.816,7.325 L33.816,17.067" id="Fill-26" fill="#FF122B" sketch:type="MSShapeGroup"></path>
            <path d="M53.682,22.551 L53.682,26.205 L45.323,31.075 L36.966,26.197 L36.964,22.546 L45.32,27.422 L53.682,22.551" id="Fill-27" fill="#FF122B" sketch:type="MSShapeGroup"></path>
            <path d="M35.909,19.508 L35.909,8.544 L45.31,3.062 L54.721,8.546 L54.721,19.506 L45.316,24.983 L35.909,19.508 L35.909,19.508 Z M39.048,9.157 L45.318,12.81 L51.586,9.154 L45.316,5.5 L39.048,9.157 L39.048,9.157 Z M44.271,21.931 L44.272,14.624 L37.999,10.977 L37.999,18.283 L44.271,21.931 L44.271,21.931 Z M52.623,10.987 L46.354,14.64 L46.357,21.944 L52.627,18.292 L52.623,10.987 L52.623,10.987 Z" id="Fill-28" opacity="0.501340951" fill="#000000" sketch:type="MSShapeGroup"></path>
            <path d="M0.315,5.521 L4.445,5.521 C7.39,5.521 9.153,7.327 9.153,10.328 C9.154,13.505 7.364,15.216 4.445,15.216 L0.315,15.216 L0.315,5.521 L0.315,5.521 Z M2.74,13.121 L3.923,13.121 C5.821,13.08 6.729,12.256 6.729,10.315 C6.729,8.549 5.633,7.617 3.923,7.617 L2.74,7.617 L2.74,13.121 L2.74,13.121 Z" id="Fill-29" opacity="0.5" fill="#000000" sketch:type="MSShapeGroup"></path>
            <path d="M10.428,5.521 L15.141,5.521 C16.932,5.521 18.612,6.351 18.612,8.645 C18.612,11.046 17.255,11.984 15.141,11.984 L12.856,11.984 L12.856,15.216 L10.428,15.216 L10.428,5.521 L10.428,5.521 Z M12.856,10.107 L14.765,10.107 C15.545,10.107 16.185,9.703 16.185,8.823 C16.185,7.911 15.533,7.469 14.765,7.469 L12.856,7.469 L12.856,10.107 L12.856,10.107 Z" id="Fill-30" opacity="0.5" fill="#000000" sketch:type="MSShapeGroup"></path>
            <path d="M20.004,5.521 L24.137,5.521 C27.081,5.521 28.845,7.327 28.845,10.328 C28.845,13.505 27.056,15.216 24.137,15.216 L20.004,15.216 L20.004,5.521 L20.004,5.521 Z M22.43,13.121 L23.616,13.121 C25.513,13.08 26.417,12.256 26.417,10.315 C26.417,8.549 25.324,7.617 23.616,7.617 L22.43,7.617 L22.43,13.121 L22.43,13.121 Z" id="Fill-31" opacity="0.5" fill="#000000" sketch:type="MSShapeGroup"></path>
        </g>
    </g>
</svg>